<svg width="48" height="48" viewBox="0 0 48 48" fill="none" xmlns="http://www.w3.org/2000/svg">
<rect width="48" height="48" rx="7" fill="#F4F7FC"/>
<path d="M15.497 14C14.6763 14 14 14.6776 14 15.5V18.5C14 19.3224 14.6763 20 15.497 20H18.4909C19.3116 20 19.9879 19.3224 19.9879 18.5V15.5C19.9879 14.6776 19.3116 14 18.4909 14H15.497ZM15.497 15H18.4909C18.776 15 18.9899 15.2143 18.9899 15.5V18.5C18.9899 18.7857 18.776 19 18.4909 19H15.497C15.2119 19 14.998 18.7857 14.998 18.5V15.5C14.998 15.2143 15.2119 15 15.497 15ZM22.4498 15.5C22.3836 15.4991 22.318 15.5113 22.2566 15.536C22.1953 15.5607 22.1394 15.5974 22.0923 15.6439C22.0452 15.6904 22.0079 15.7459 21.9823 15.807C21.9568 15.8681 21.9437 15.9337 21.9437 16C21.9437 16.0663 21.9568 16.1319 21.9823 16.193C22.0079 16.2541 22.0452 16.3096 22.0923 16.3561C22.1394 16.4026 22.1953 16.4393 22.2566 16.464C22.318 16.4887 22.3836 16.5009 22.4498 16.5H33.4939C33.56 16.5009 33.6257 16.4887 33.687 16.464C33.7484 16.4393 33.8042 16.4026 33.8513 16.3561C33.8984 16.3096 33.9358 16.2541 33.9613 16.193C33.9869 16.1319 34 16.0663 34 16C34 15.9337 33.9869 15.8681 33.9613 15.807C33.9358 15.7459 33.8984 15.6904 33.8513 15.6439C33.8042 15.5974 33.7484 15.5607 33.687 15.536C33.6257 15.5113 33.56 15.4991 33.4939 15.5H22.4498ZM22.2392 17.5C22.1731 17.4991 22.1075 17.5113 22.0461 17.536C21.9848 17.5607 21.9289 17.5974 21.8818 17.6439C21.8347 17.6904 21.7973 17.7459 21.7718 17.807C21.7463 17.8681 21.7331 17.9337 21.7331 18C21.7331 18.0663 21.7463 18.1319 21.7718 18.193C21.7973 18.2541 21.8347 18.3096 21.8818 18.3561C21.9289 18.4026 21.9848 18.4393 22.0461 18.464C22.1075 18.4887 22.1731 18.5009 22.2392 18.5H28.6755C28.7416 18.5009 28.8073 18.4887 28.8686 18.464C28.93 18.4393 28.9858 18.4026 29.0329 18.3561C29.08 18.3096 29.1174 18.2541 29.1429 18.193C29.1685 18.1319 29.1816 18.0663 29.1816 18C29.1816 17.9337 29.1685 17.8681 29.1429 17.807C29.1174 17.7459 29.08 17.6904 29.0329 17.6439C28.9858 17.5974 28.93 17.5607 28.8686 17.536C28.8073 17.5113 28.7416 17.4991 28.6755 17.5H22.2392ZM15.497 21C14.6763 21 14 21.6776 14 22.5V25.5C14 26.3224 14.6763 27 15.497 27H18.4909C19.3116 27 19.9879 26.3224 19.9879 25.5V22.5C19.9879 21.6776 19.3116 21 18.4909 21H15.497ZM15.497 22H18.4909C18.776 22 18.9899 22.2143 18.9899 22.5V25.5C18.9899 25.7857 18.776 26 18.4909 26H15.497C15.2119 26 14.998 25.7857 14.998 25.5V22.5C14.998 22.2143 15.2119 22 15.497 22ZM22.4498 22.5C22.3836 22.4991 22.318 22.5113 22.2566 22.536C22.1953 22.5607 22.1394 22.5974 22.0923 22.6439C22.0452 22.6904 22.0079 22.7459 21.9823 22.807C21.9568 22.8681 21.9437 22.9337 21.9437 23C21.9437 23.0663 21.9568 23.1319 21.9823 23.193C22.0079 23.2541 22.0452 23.3096 22.0923 23.3561C22.1394 23.4026 22.1953 23.4393 22.2566 23.464C22.318 23.4887 22.3836 23.5009 22.4498 23.5H33.4939C33.56 23.5009 33.6257 23.4887 33.687 23.464C33.7484 23.4393 33.8042 23.4026 33.8513 23.3561C33.8984 23.3096 33.9358 23.2541 33.9613 23.193C33.9869 23.1319 34 23.0663 34 23C34 22.9337 33.9869 22.8681 33.9613 22.807C33.9358 22.7459 33.8984 22.6904 33.8513 22.6439C33.8042 22.5974 33.7484 22.5607 33.687 22.536C33.6257 22.5113 33.56 22.4991 33.4939 22.5H22.4498ZM22.2392 24.5C22.1731 24.4991 22.1075 24.5113 22.0461 24.536C21.9848 24.5607 21.9289 24.5974 21.8818 24.6439C21.8347 24.6904 21.7973 24.7459 21.7718 24.807C21.7463 24.8681 21.7331 24.9337 21.7331 25C21.7331 25.0663 21.7463 25.1319 21.7718 25.193C21.7973 25.2541 21.8347 25.3096 21.8818 25.3561C21.9289 25.4026 21.9848 25.4393 22.0461 25.464C22.1075 25.4887 22.1731 25.5009 22.2392 25.5H28.6755C28.7416 25.5009 28.8073 25.4887 28.8686 25.464C28.93 25.4393 28.9858 25.4026 29.0329 25.3561C29.08 25.3096 29.1174 25.2541 29.1429 25.193C29.1685 25.1319 29.1816 25.0663 29.1816 25C29.1816 24.9337 29.1685 24.8681 29.1429 24.807C29.1174 24.7459 29.08 24.6904 29.0329 24.6439C28.9858 24.5974 28.93 24.5607 28.8686 24.536C28.8073 24.5113 28.7416 24.4991 28.6755 24.5H22.2392ZM15.497 28C14.6763 28 14 28.6776 14 29.5V32.5C14 33.3224 14.6763 34 15.497 34H18.4909C19.3116 34 19.9879 33.3224 19.9879 32.5V29.5C19.9879 28.6776 19.3116 28 18.4909 28H15.497ZM15.497 29H18.4909C18.776 29 18.9899 29.2143 18.9899 29.5V32.5C18.9899 32.7857 18.776 33 18.4909 33H15.497C15.2119 33 14.998 32.7857 14.998 32.5V29.5C14.998 29.2143 15.2119 29 15.497 29ZM22.4498 29.5C22.3836 29.4991 22.318 29.5113 22.2566 29.536C22.1953 29.5607 22.1394 29.5974 22.0923 29.6439C22.0452 29.6904 22.0079 29.7459 21.9823 29.807C21.9568 29.8681 21.9437 29.9337 21.9437 30C21.9437 30.0663 21.9568 30.1319 21.9823 30.193C22.0079 30.2541 22.0452 30.3096 22.0923 30.3561C22.1394 30.4026 22.1953 30.4393 22.2566 30.464C22.318 30.4887 22.3836 30.5009 22.4498 30.5H33.4939C33.56 30.5009 33.6257 30.4887 33.687 30.464C33.7484 30.4393 33.8042 30.4026 33.8513 30.3561C33.8984 30.3096 33.9358 30.2541 33.9613 30.193C33.9869 30.1319 34 30.0663 34 30C34 29.9337 33.9869 29.8681 33.9613 29.807C33.9358 29.7459 33.8984 29.6904 33.8513 29.6439C33.8042 29.5974 33.7484 29.5607 33.687 29.536C33.6257 29.5113 33.56 29.4991 33.4939 29.5H22.4498ZM22.2392 31.5C22.1731 31.4991 22.1075 31.5113 22.0461 31.536C21.9848 31.5607 21.9289 31.5974 21.8818 31.6439C21.8347 31.6904 21.7973 31.7459 21.7718 31.807C21.7463 31.8681 21.7331 31.9337 21.7331 32C21.7331 32.0663 21.7463 32.1319 21.7718 32.193C21.7973 32.2541 21.8347 32.3096 21.8818 32.3561C21.9289 32.4026 21.9848 32.4393 22.0461 32.464C22.1075 32.4887 22.1731 32.5009 22.2392 32.5H28.6755C28.7416 32.5009 28.8073 32.4887 28.8686 32.464C28.93 32.4393 28.9858 32.4026 29.0329 32.3561C29.08 32.3096 29.1174 32.2541 29.1429 32.193C29.1685 32.1319 29.1816 32.0663 29.1816 32C29.1816 31.9337 29.1685 31.8681 29.1429 31.807C29.1174 31.7459 29.08 31.6904 29.0329 31.6439C28.9858 31.5974 28.93 31.5607 28.8686 31.536C28.8073 31.5113 28.7416 31.4991 28.6755 31.5H22.2392Z" fill="url(#paint0_linear_33_2350)"/>
<defs>
<linearGradient id="paint0_linear_33_2350" x1="14" y1="14" x2="37.0512" y2="18.5533" gradientUnits="userSpaceOnUse">
<stop stop-color="#5682E1"/>
<stop offset="1" stop-color="#C556E1"/>
</linearGradient>
</defs>
</svg>
