<svg width="48" height="48" viewBox="0 0 48 48" fill="none" xmlns="http://www.w3.org/2000/svg">
<rect width="48" height="48" rx="7" fill="#F4F7FC"/>
<path d="M29.5566 29.8678V18.1318H32.5086L34.3806 23.3518C34.5006 23.6998 34.6086 24.0538 34.7046 24.4138C34.8126 24.7618 34.9206 25.1278 35.0286 25.5118H35.1006C35.2086 25.1278 35.3106 24.7618 35.4066 24.4138C35.5026 24.0538 35.6106 23.6998 35.7306 23.3518L37.5666 18.1318H40.5186V29.8678H38.0886V25.5658C38.0886 25.1818 38.1066 24.7318 38.1426 24.2158C38.1906 23.6878 38.2386 23.1658 38.2866 22.6498C38.3466 22.1218 38.4006 21.6658 38.4486 21.2818H38.3766L37.4226 24.3778L35.7666 28.8598H34.2186L32.5806 24.3778L31.6626 21.2818H31.5906C31.6386 21.6658 31.6866 22.1218 31.7346 22.6498C31.7946 23.1658 31.8426 23.6878 31.8786 24.2158C31.9146 24.7318 31.9326 25.1818 31.9326 25.5658V29.8678H29.5566Z" fill="url(#paint0_linear_33_2355)"/>
<path d="M18.5176 29.8678V18.1318H22.7476C23.5756 18.1318 24.3316 18.2458 25.0156 18.4738C25.6996 18.6898 26.2456 19.0678 26.6536 19.6078C27.0616 20.1358 27.2656 20.8618 27.2656 21.7858C27.2656 22.6858 27.0616 23.4178 26.6536 23.9818C26.2456 24.5458 25.6996 24.9658 25.0156 25.2418C24.3316 25.5058 23.5756 25.6378 22.7476 25.6378H21.1636V29.8678H18.5176ZM21.1636 23.5318H22.5316C23.2276 23.5318 23.7556 23.3878 24.1156 23.0998C24.4876 22.7998 24.6736 22.3618 24.6736 21.7858C24.6736 21.2098 24.4876 20.8078 24.1156 20.5798C23.7556 20.3518 23.2276 20.2378 22.5316 20.2378H21.1636V23.5318ZM24.8716 29.8678L22.2616 24.9538L24.0976 23.2438L27.8416 29.8678H24.8716Z" fill="url(#paint1_linear_33_2355)"/>
<path d="M13.0084 30.084C12.0004 30.084 11.0764 29.862 10.2364 29.418C9.40842 28.962 8.74242 28.284 8.23842 27.384C7.73442 26.484 7.48242 25.38 7.48242 24.072C7.48242 23.1 7.62642 22.236 7.91442 21.48C8.21442 20.712 8.62242 20.064 9.13842 19.536C9.65442 19.008 10.2424 18.606 10.9024 18.33C11.5744 18.054 12.2824 17.916 13.0264 17.916C13.7824 17.916 14.4604 18.066 15.0604 18.366C15.6604 18.666 16.1584 19.026 16.5544 19.446L15.1504 21.048C14.8624 20.772 14.5504 20.568 14.2144 20.436C13.8784 20.292 13.5004 20.22 13.0804 20.22C12.5644 20.22 12.0844 20.376 11.6404 20.688C11.2084 20.988 10.8604 21.42 10.5964 21.984C10.3324 22.548 10.2004 23.214 10.2004 23.982C10.2004 24.786 10.3264 25.476 10.5784 26.052C10.8304 26.616 11.1784 27.048 11.6224 27.348C12.0784 27.648 12.6004 27.798 13.1884 27.798C13.6444 27.798 14.0524 27.702 14.4124 27.51C14.7724 27.318 15.0904 27.09 15.3664 26.826L16.6984 28.392C16.1944 28.956 15.6364 29.382 15.0244 29.67C14.4124 29.946 13.7404 30.084 13.0084 30.084Z" fill="url(#paint2_linear_33_2355)"/>
<defs>
<linearGradient id="paint0_linear_33_2355" x1="29.5566" y1="18.1318" x2="42.2518" y2="20.4741" gradientUnits="userSpaceOnUse">
<stop stop-color="#5682E1"/>
<stop offset="1" stop-color="#C556E1"/>
</linearGradient>
<linearGradient id="paint1_linear_33_2355" x1="18.5176" y1="18.1318" x2="29.415" y2="19.842" gradientUnits="userSpaceOnUse">
<stop stop-color="#5682E1"/>
<stop offset="1" stop-color="#C556E1"/>
</linearGradient>
<linearGradient id="paint2_linear_33_2355" x1="7.48242" y1="17.916" x2="18.2772" y2="19.531" gradientUnits="userSpaceOnUse">
<stop stop-color="#5682E1"/>
<stop offset="1" stop-color="#C556E1"/>
</linearGradient>
</defs>
</svg>
