<svg width="48" height="48" viewBox="0 0 48 48" fill="none" xmlns="http://www.w3.org/2000/svg">
<g clip-path="url(#clip0_10_14033)">
<path opacity="0.5" d="M0 24C0 17.6348 2.52856 11.5303 7.02944 7.02944C11.5303 2.52856 17.6348 0 24 0C30.3652 0 36.4697 2.52856 40.9706 7.02944C45.4714 11.5303 48 17.6348 48 24C48 30.3652 45.4714 36.4697 40.9706 40.9706C36.4697 45.4714 30.3652 48 24 48C17.6348 48 11.5303 45.4714 7.02944 40.9706C2.52856 36.4697 0 30.3652 0 24Z" fill="white"/>
<path fill-rule="evenodd" clip-rule="evenodd" d="M20.0756 47.676C15.2652 46.8859 10.8107 44.646 7.30762 41.256L28.9316 21.408L16.5716 24.408C15.7535 24.6091 14.9035 24.6453 14.0712 24.5145C13.2389 24.3838 12.4409 24.0886 11.7239 23.6463C11.0068 23.204 10.3849 22.6234 9.89457 21.9383C9.40419 21.2532 9.05509 20.4774 8.86762 19.656C8.48758 17.9846 8.77887 16.2309 9.67882 14.7721C10.5788 13.3134 12.0154 12.2662 13.6796 11.856L39.4076 5.604C42.541 8.22777 44.9525 11.6082 46.4135 15.425C47.8746 19.2418 48.3368 23.3684 47.7563 27.4138C47.1758 31.4592 45.5718 35.2894 43.0965 38.5413C40.6212 41.7933 37.3564 44.3592 33.6116 45.996C33.5396 45.144 33.6236 44.256 33.9236 43.392L38.0036 31.224L20.0756 47.676Z" fill="white"/>
</g>
<defs>
<clipPath id="clip0_10_14033">
<rect width="48" height="48" fill="white"/>
</clipPath>
</defs>
</svg>
