<svg width="48" height="48" viewBox="0 0 48 48" fill="none" xmlns="http://www.w3.org/2000/svg">
<rect opacity="0.5" width="48" height="48" rx="12" fill="white"/>
<path d="M19.3194 15.3333C19.6909 14.2633 20.1309 13.314 20.6268 12.516C21.5843 10.972 22.7216 10 23.9997 10C25.2778 10 26.4151 10.972 27.3732 12.516C27.8685 13.314 28.3084 14.2633 28.6806 15.3333H19.3194Z" fill="white"/>
<path d="M12.9955 15.3333C14.8732 12.9594 17.5017 11.2067 20.5226 10.4353C20.1602 10.8333 19.8148 11.294 19.4928 11.8134C18.886 12.7907 18.3529 13.9807 17.9169 15.3333H12.9955Z" fill="white"/>
<path d="M17.533 16.6667H12.0615C10.8544 18.6227 10.1147 20.8966 10 23.3333H16.6655C16.7137 20.9213 17.0246 18.656 17.533 16.6667Z" fill="white"/>
<path d="M10 24.6667H16.6655C16.7137 27.0787 17.0246 29.344 17.533 31.3333H12.0615C10.8544 29.378 10.1147 27.1034 10 24.6667Z" fill="white"/>
<path d="M12.9955 32.6667H17.9169C18.3529 34.0193 18.886 35.2094 19.4928 36.1867C19.8148 36.706 20.1602 37.1667 20.5226 37.5647C17.5017 36.7933 14.8732 35.0406 12.9955 32.6667Z" fill="white"/>
<path d="M27.3732 35.484C27.8685 34.686 28.3084 33.7367 28.6806 32.6667H19.3194C19.6909 33.7367 20.1309 34.686 20.6268 35.484C21.5843 37.028 22.7216 38 23.9997 38C25.2778 38 26.4151 37.028 27.3732 35.484Z" fill="white"/>
<path d="M30.0831 32.6667C29.6471 34.0193 29.114 35.2094 28.5072 36.1867C28.1846 36.706 27.8398 37.1667 27.4774 37.5647C30.4983 36.7933 33.1268 35.0406 35.0045 32.6667H30.0831Z" fill="white"/>
<path d="M29.9997 24.6667C29.9495 27.0967 29.6256 29.3693 29.0918 31.3333H18.9088C18.3744 29.3693 18.0511 27.0967 18.0003 24.6667H29.9997Z" fill="white"/>
<path d="M30.467 31.3333C30.9754 29.344 31.2856 27.0787 31.3345 24.6667H38C37.8853 27.1034 37.1455 29.3773 35.9385 31.3333H30.467Z" fill="white"/>
<path d="M29.9997 23.3333C29.9495 20.9033 29.6256 18.6307 29.0918 16.6667H18.9088C18.3744 18.6307 18.0511 20.9033 18.0003 23.3333H29.9997Z" fill="white"/>
<path d="M30.467 16.6667C30.9754 18.656 31.2856 20.9213 31.3345 23.3333H38C37.8853 20.8966 37.1455 18.622 35.9385 16.6667H30.467Z" fill="white"/>
<path d="M28.5072 11.8134C28.1846 11.294 27.8398 10.8327 27.4774 10.4353L27.5309 10.4487C28.4557 10.6927 29.3545 11.024 30.2115 11.4487C31.4903 12.082 32.6706 12.912 33.701 13.8993C34.1677 14.3473 34.6011 14.8274 35.0045 15.3333H30.0831C29.6471 13.9807 29.114 12.7907 28.5072 11.8134Z" fill="white"/>
</svg>
