<svg width="104" height="84" viewBox="0 0 104 84" fill="none" xmlns="http://www.w3.org/2000/svg">
<rect opacity="0.5" x="28" width="48" height="48" rx="12" fill="white"/>
<path d="M47.3194 15.3333C47.6909 14.2633 48.1309 13.314 48.6268 12.516C49.5843 10.972 50.7216 10 51.9997 10C53.2778 10 54.4151 10.972 55.3732 12.516C55.8685 13.314 56.3084 14.2633 56.6806 15.3333H47.3194Z" fill="white"/>
<path d="M40.9955 15.3333C42.8732 12.9594 45.5017 11.2067 48.5226 10.4353C48.1602 10.8333 47.8148 11.294 47.4928 11.8134C46.886 12.7907 46.3529 13.9807 45.9169 15.3333H40.9955Z" fill="white"/>
<path d="M45.533 16.6667H40.0615C38.8544 18.6227 38.1147 20.8966 38 23.3333H44.6655C44.7137 20.9213 45.0246 18.656 45.533 16.6667Z" fill="white"/>
<path d="M38 24.6667H44.6655C44.7137 27.0787 45.0246 29.344 45.533 31.3333H40.0615C38.8544 29.378 38.1147 27.1034 38 24.6667Z" fill="white"/>
<path d="M40.9955 32.6667H45.9169C46.3529 34.0193 46.886 35.2094 47.4928 36.1867C47.8148 36.706 48.1602 37.1667 48.5226 37.5647C45.5017 36.7933 42.8732 35.0407 40.9955 32.6667Z" fill="white"/>
<path d="M55.3732 35.484C55.8685 34.686 56.3084 33.7367 56.6806 32.6667H47.3194C47.6909 33.7367 48.1309 34.686 48.6268 35.484C49.5843 37.028 50.7216 38 51.9997 38C53.2778 38 54.4151 37.028 55.3732 35.484Z" fill="white"/>
<path d="M58.0831 32.6667C57.6471 34.0193 57.114 35.2094 56.5072 36.1867C56.1846 36.706 55.8398 37.1667 55.4774 37.5647C58.4983 36.7933 61.1268 35.0407 63.0045 32.6667H58.0831Z" fill="white"/>
<path d="M57.9997 24.6667C57.9495 27.0967 57.6256 29.3693 57.0918 31.3333H46.9088C46.3744 29.3693 46.0511 27.0967 46.0003 24.6667H57.9997Z" fill="white"/>
<path d="M58.467 31.3333C58.9754 29.344 59.2856 27.0787 59.3345 24.6667H66C65.8853 27.1034 65.1456 29.3773 63.9385 31.3333H58.467Z" fill="white"/>
<path d="M57.9997 23.3333C57.9495 20.9033 57.6256 18.6307 57.0918 16.6667H46.9088C46.3744 18.6307 46.0511 20.9033 46.0003 23.3333H57.9997Z" fill="white"/>
<path d="M58.467 16.6667C58.9754 18.656 59.2856 20.9213 59.3345 23.3333H66C65.8853 20.8966 65.1456 18.622 63.9385 16.6667H58.467Z" fill="white"/>
<path d="M56.5072 11.8134C56.1846 11.294 55.8398 10.8327 55.4774 10.4353L55.5309 10.4487C56.4557 10.6927 57.3545 11.024 58.2115 11.4487C59.4903 12.082 60.6706 12.912 61.701 13.8993C62.1677 14.3473 62.6011 14.8274 63.0045 15.3333H58.0831C57.6471 13.9807 57.114 12.7907 56.5072 11.8134Z" fill="white"/>
<path d="M4.32606 76V66.844H11.1581V76H9.53406V68.216H5.95006V76H4.32606ZM13.3462 78.716V69.126H14.6762L14.7882 69.854H14.8442C15.1336 69.602 15.4556 69.392 15.8102 69.224C16.1649 69.0467 16.5336 68.958 16.9162 68.958C17.4856 68.958 17.9709 69.1027 18.3722 69.392C18.7736 69.6813 19.0816 70.0873 19.2962 70.61C19.5109 71.1327 19.6182 71.7487 19.6182 72.458C19.6182 73.242 19.4782 73.9093 19.1982 74.46C18.9182 75.0107 18.5542 75.4353 18.1062 75.734C17.6676 76.0233 17.1916 76.168 16.6782 76.168C16.3796 76.168 16.0809 76.1027 15.7822 75.972C15.4836 75.8413 15.1942 75.6547 14.9142 75.412L14.9562 76.56V78.716H13.3462ZM16.3422 74.838C16.6502 74.838 16.9256 74.7493 17.1682 74.572C17.4109 74.3947 17.6022 74.1333 17.7422 73.788C17.8822 73.4333 17.9522 72.9947 17.9522 72.472C17.9522 72.0147 17.9009 71.6227 17.7982 71.296C17.6956 70.9693 17.5322 70.722 17.3082 70.554C17.0936 70.3767 16.8136 70.288 16.4682 70.288C16.2162 70.288 15.9689 70.3533 15.7262 70.484C15.4836 70.6053 15.2269 70.7967 14.9562 71.058V74.264C15.2082 74.4693 15.4509 74.6187 15.6842 74.712C15.9269 74.796 16.1462 74.838 16.3422 74.838ZM24.0626 76.168C23.4932 76.168 22.9612 76.028 22.4666 75.748C21.9719 75.4587 21.5706 75.048 21.2626 74.516C20.9546 73.9747 20.8006 73.326 20.8006 72.57C20.8006 71.8047 20.9546 71.156 21.2626 70.624C21.5706 70.0827 21.9719 69.672 22.4666 69.392C22.9612 69.1027 23.4932 68.958 24.0626 68.958C24.6412 68.958 25.1779 69.1027 25.6726 69.392C26.1672 69.672 26.5686 70.0827 26.8766 70.624C27.1846 71.156 27.3386 71.8047 27.3386 72.57C27.3386 73.326 27.1846 73.9747 26.8766 74.516C26.5686 75.048 26.1672 75.4587 25.6726 75.748C25.1779 76.028 24.6412 76.168 24.0626 76.168ZM24.0626 74.852C24.3986 74.852 24.6879 74.7587 24.9306 74.572C25.1732 74.3853 25.3599 74.1193 25.4906 73.774C25.6212 73.4287 25.6866 73.0273 25.6866 72.57C25.6866 72.1127 25.6212 71.7113 25.4906 71.366C25.3599 71.0207 25.1732 70.7547 24.9306 70.568C24.6879 70.372 24.3986 70.274 24.0626 70.274C23.7266 70.274 23.4372 70.372 23.1946 70.568C22.9612 70.7547 22.7792 71.0207 22.6486 71.366C22.5179 71.7113 22.4526 72.1127 22.4526 72.57C22.4526 73.0273 22.5179 73.4287 22.6486 73.774C22.7792 74.1193 22.9612 74.3853 23.1946 74.572C23.4372 74.7587 23.7266 74.852 24.0626 74.852ZM28.9322 76V69.126H30.8782L31.9422 71.856C32.0448 72.108 32.1382 72.3647 32.2222 72.626C32.3062 72.8873 32.3808 73.1813 32.4462 73.508H32.5022C32.5768 73.1813 32.6468 72.8873 32.7122 72.626C32.7868 72.3647 32.8708 72.108 32.9642 71.856L33.9862 69.126H35.9462V76H34.4902V73.592C34.4902 73.3587 34.4995 73.0787 34.5182 72.752C34.5368 72.4253 34.5555 72.094 34.5742 71.758C34.6022 71.422 34.6302 71.128 34.6582 70.876H34.6022C34.5088 71.1933 34.4062 71.52 34.2942 71.856C34.1822 72.192 34.0748 72.5 33.9722 72.78L32.9922 75.384H31.8722L30.8782 72.78C30.7848 72.5 30.6822 72.192 30.5702 71.856C30.4582 71.52 30.3508 71.1933 30.2482 70.876H30.1922C30.2202 71.128 30.2482 71.422 30.2762 71.758C30.3042 72.094 30.3228 72.4253 30.3322 72.752C30.3508 73.0787 30.3602 73.3587 30.3602 73.592V76H28.9322ZM40.8106 76.168C40.2413 76.168 39.7093 76.028 39.2146 75.748C38.7199 75.4587 38.3186 75.048 38.0106 74.516C37.7026 73.9747 37.5486 73.326 37.5486 72.57C37.5486 71.8047 37.7026 71.156 38.0106 70.624C38.3186 70.0827 38.7199 69.672 39.2146 69.392C39.7093 69.1027 40.2413 68.958 40.8106 68.958C41.3893 68.958 41.9259 69.1027 42.4206 69.392C42.9153 69.672 43.3166 70.0827 43.6246 70.624C43.9326 71.156 44.0866 71.8047 44.0866 72.57C44.0866 73.326 43.9326 73.9747 43.6246 74.516C43.3166 75.048 42.9153 75.4587 42.4206 75.748C41.9259 76.028 41.3893 76.168 40.8106 76.168ZM40.8106 74.852C41.1466 74.852 41.4359 74.7587 41.6786 74.572C41.9213 74.3853 42.1079 74.1193 42.2386 73.774C42.3693 73.4287 42.4346 73.0273 42.4346 72.57C42.4346 72.1127 42.3693 71.7113 42.2386 71.366C42.1079 71.0207 41.9213 70.7547 41.6786 70.568C41.4359 70.372 41.1466 70.274 40.8106 70.274C40.4746 70.274 40.1853 70.372 39.9426 70.568C39.7093 70.7547 39.5273 71.0207 39.3966 71.366C39.2659 71.7113 39.2006 72.1127 39.2006 72.57C39.2006 73.0273 39.2659 73.4287 39.3966 73.774C39.5273 74.1193 39.7093 74.3853 39.9426 74.572C40.1853 74.7587 40.4746 74.852 40.8106 74.852ZM52.3049 76.168C51.5303 76.168 50.8256 75.986 50.1909 75.622C49.5656 75.258 49.0663 74.726 48.6929 74.026C48.3289 73.3167 48.1469 72.458 48.1469 71.45C48.1469 70.7033 48.2543 70.036 48.4689 69.448C48.6836 68.8507 48.9823 68.3467 49.3649 67.936C49.7569 67.5253 50.2049 67.2127 50.7089 66.998C51.2129 66.7833 51.7543 66.676 52.3329 66.676C52.9116 66.676 53.4249 66.7927 53.8729 67.026C54.3209 67.25 54.6896 67.5207 54.9789 67.838L54.1109 68.832C53.8776 68.5893 53.6163 68.4073 53.3269 68.286C53.0469 68.1553 52.7296 68.09 52.3749 68.09C51.8896 68.09 51.4509 68.2253 51.0589 68.496C50.6763 68.7667 50.3729 69.1493 50.1489 69.644C49.9249 70.1387 49.8129 70.7267 49.8129 71.408C49.8129 72.108 49.9203 72.71 50.1349 73.214C50.3496 73.7087 50.6529 74.0913 51.0449 74.362C51.4369 74.6233 51.8943 74.754 52.4169 74.754C52.8089 74.754 53.1589 74.6747 53.4669 74.516C53.7749 74.3573 54.0549 74.1473 54.3069 73.886L55.1329 74.852C54.7596 75.2813 54.3396 75.608 53.8729 75.832C53.4063 76.056 52.8836 76.168 52.3049 76.168ZM57.6098 76V70.4H55.4538V69.126H61.3898V70.4H59.2338V76H57.6098ZM62.77 78.716V69.126H64.1L64.212 69.854H64.268C64.5574 69.602 64.8794 69.392 65.234 69.224C65.5887 69.0467 65.9574 68.958 66.34 68.958C66.9094 68.958 67.3947 69.1027 67.796 69.392C68.1974 69.6813 68.5054 70.0873 68.72 70.61C68.9347 71.1327 69.042 71.7487 69.042 72.458C69.042 73.242 68.902 73.9093 68.622 74.46C68.342 75.0107 67.978 75.4353 67.53 75.734C67.0914 76.0233 66.6154 76.168 66.102 76.168C65.8034 76.168 65.5047 76.1027 65.206 75.972C64.9074 75.8413 64.618 75.6547 64.338 75.412L64.38 76.56V78.716H62.77ZM65.766 74.838C66.074 74.838 66.3494 74.7493 66.592 74.572C66.8347 74.3947 67.026 74.1333 67.166 73.788C67.306 73.4333 67.376 72.9947 67.376 72.472C67.376 72.0147 67.3247 71.6227 67.222 71.296C67.1194 70.9693 66.956 70.722 66.732 70.554C66.5174 70.3767 66.2374 70.288 65.892 70.288C65.64 70.288 65.3927 70.3533 65.15 70.484C64.9074 70.6053 64.6507 70.7967 64.38 71.058V74.264C64.632 74.4693 64.8747 74.6187 65.108 74.712C65.3507 74.796 65.57 74.838 65.766 74.838ZM72.1743 76.168C71.773 76.168 71.4183 76.084 71.1103 75.916C70.8023 75.748 70.5597 75.5147 70.3823 75.216C70.2143 74.908 70.1303 74.5533 70.1303 74.152C70.1303 73.3773 70.4523 72.794 71.0963 72.402C71.7497 72.0007 72.781 71.7253 74.1903 71.576C74.181 71.3427 74.1343 71.128 74.0503 70.932C73.9757 70.736 73.845 70.582 73.6583 70.47C73.481 70.3487 73.2383 70.288 72.9303 70.288C72.5943 70.288 72.263 70.3487 71.9363 70.47C71.619 70.5913 71.3063 70.7453 70.9983 70.932L70.4103 69.84C70.6623 69.6813 70.9377 69.5367 71.2363 69.406C71.535 69.266 71.8523 69.1587 72.1883 69.084C72.5243 69 72.8743 68.958 73.2383 68.958C73.8077 68.958 74.279 69.0747 74.6523 69.308C75.035 69.532 75.3197 69.868 75.5063 70.316C75.7023 70.7547 75.8003 71.296 75.8003 71.94V76H74.4703L74.3583 75.244H74.3023C73.985 75.5053 73.6537 75.7247 73.3083 75.902C72.963 76.0793 72.585 76.168 72.1743 76.168ZM72.6783 74.852C72.9583 74.852 73.215 74.796 73.4483 74.684C73.691 74.5627 73.9383 74.3853 74.1903 74.152V72.696C73.565 72.7707 73.0703 72.8687 72.7063 72.99C72.3423 73.1113 72.081 73.2607 71.9223 73.438C71.773 73.606 71.6983 73.8067 71.6983 74.04C71.6983 74.3293 71.7917 74.5393 71.9783 74.67C72.165 74.7913 72.3983 74.852 72.6783 74.852ZM77.7271 76V69.126H79.3371V71.758H82.0811V69.126H83.6911V76H82.0811V73.172H79.3371V76H77.7271ZM85.7388 76V69.126H87.3068V71.492C87.3068 71.8653 87.2928 72.2573 87.2648 72.668C87.2368 73.0787 87.1995 73.536 87.1528 74.04H87.2088C87.3395 73.7693 87.4748 73.4893 87.6148 73.2C87.7641 72.9013 87.8995 72.6493 88.0208 72.444L89.9528 69.126H91.7308V76H90.1628V73.62C90.1628 73.2653 90.1721 72.8827 90.1908 72.472C90.2188 72.052 90.2608 71.5853 90.3168 71.072H90.2608C90.1395 71.3613 90.0041 71.6507 89.8548 71.94C89.7148 72.2293 89.5795 72.4813 89.4488 72.696L87.5168 76H85.7388ZM99.0419 78.408V76H93.7779V69.126H95.3879V74.712H97.9359V69.126H99.5459V74.712H100.596V75.762L100.428 78.408H99.0419Z" fill="white"/>
</svg>
