<svg width="104" height="84" viewBox="0 0 104 84" fill="none" xmlns="http://www.w3.org/2000/svg">
<g clip-path="url(#clip0_28_8846)">
<path opacity="0.5" d="M52.01 48.02C65.2703 48.02 76.02 37.2703 76.02 24.01C76.02 10.7496 65.2703 0 52.01 0C38.7496 0 28 10.7496 28 24.01C28 37.2703 38.7496 48.02 52.01 48.02Z" fill="white"/>
<path fill-rule="evenodd" clip-rule="evenodd" d="M38.8554 23.7502C45.8525 20.7115 50.5105 18.6923 52.8496 17.7127C59.5068 14.9339 60.9062 14.4541 61.8058 14.4341C62.0057 14.4341 62.4456 14.4741 62.7454 14.714C62.9853 14.9139 63.0453 15.1738 63.0853 15.3737C63.1253 15.5736 63.1653 15.9934 63.1253 16.3133C62.7654 20.1117 61.2061 29.3279 60.4064 33.5661C60.0666 35.3654 59.4068 35.9651 58.7671 36.0251C57.3677 36.145 56.3081 35.1055 54.9687 34.2258C52.8496 32.8464 51.6701 31.9868 49.6109 30.6273C47.2319 29.068 48.7713 28.2083 50.1307 26.8089C50.4905 26.4491 56.628 20.8514 56.7479 20.3516C56.7679 20.2916 56.7679 20.0517 56.628 19.9318C56.488 19.8118 56.2881 19.8518 56.1282 19.8918C55.9083 19.9318 52.5497 22.1709 46.0124 26.589C45.0528 27.2487 44.1932 27.5686 43.4135 27.5486C42.5539 27.5286 40.9145 27.0688 39.6751 26.669C38.1757 26.1892 36.9762 25.9293 37.0761 25.0896C37.1361 24.6498 37.7359 24.21 38.8554 23.7502Z" fill="white"/>
</g>
<path d="M27.1809 76V68.216H24.5349V66.844H31.4509V68.216H28.8049V76H27.1809ZM34.7914 76.168C34.1474 76.168 33.5641 76.028 33.0414 75.748C32.5281 75.4587 32.1221 75.048 31.8234 74.516C31.5248 73.9747 31.3754 73.3213 31.3754 72.556C31.3754 71.8093 31.5294 71.17 31.8374 70.638C32.1454 70.0967 32.5421 69.6813 33.0274 69.392C33.5128 69.1027 34.0261 68.958 34.5674 68.958C35.1928 68.958 35.7154 69.098 36.1354 69.378C36.5554 69.658 36.8681 70.0453 37.0734 70.54C37.2881 71.0253 37.3954 71.5853 37.3954 72.22C37.3954 72.3693 37.3861 72.514 37.3674 72.654C37.3581 72.794 37.3394 72.9293 37.3114 73.06H32.5794V71.828H35.9674C35.9674 71.3333 35.8554 70.946 35.6314 70.666C35.4074 70.3767 35.0621 70.232 34.5954 70.232C34.3341 70.232 34.0774 70.302 33.8254 70.442C33.5828 70.582 33.3774 70.82 33.2094 71.156C33.0508 71.492 32.9714 71.9587 32.9714 72.556C32.9714 73.0973 33.0648 73.5407 33.2514 73.886C33.4381 74.222 33.6854 74.474 33.9934 74.642C34.3014 74.8007 34.6328 74.88 34.9874 74.88C35.2861 74.88 35.5661 74.838 35.8274 74.754C36.0981 74.67 36.3501 74.5533 36.5834 74.404L37.1434 75.44C36.8261 75.664 36.4621 75.8413 36.0514 75.972C35.6501 76.1027 35.2301 76.168 34.7914 76.168ZM40.5011 76.14C40.1185 76.14 39.8105 76.0653 39.5771 75.916C39.3531 75.7573 39.1898 75.5333 39.0871 75.244C38.9845 74.9547 38.9331 74.6093 38.9331 74.208V66.116H40.5431V74.292C40.5431 74.4973 40.5805 74.6373 40.6551 74.712C40.7298 74.7867 40.8138 74.824 40.9071 74.824C40.9445 74.824 40.9771 74.824 41.0051 74.824C41.0425 74.8147 41.0891 74.8053 41.1451 74.796L41.3551 76C41.2618 76.0373 41.1405 76.07 40.9911 76.098C40.8511 76.126 40.6878 76.14 40.5011 76.14ZM45.6879 76.168C45.0439 76.168 44.4606 76.028 43.9379 75.748C43.4246 75.4587 43.0186 75.048 42.7199 74.516C42.4212 73.9747 42.2719 73.3213 42.2719 72.556C42.2719 71.8093 42.4259 71.17 42.7339 70.638C43.0419 70.0967 43.4386 69.6813 43.9239 69.392C44.4092 69.1027 44.9226 68.958 45.4639 68.958C46.0892 68.958 46.6119 69.098 47.0319 69.378C47.4519 69.658 47.7646 70.0453 47.9699 70.54C48.1846 71.0253 48.2919 71.5853 48.2919 72.22C48.2919 72.3693 48.2826 72.514 48.2639 72.654C48.2546 72.794 48.2359 72.9293 48.2079 73.06H43.4759V71.828H46.8639C46.8639 71.3333 46.7519 70.946 46.5279 70.666C46.3039 70.3767 45.9586 70.232 45.4919 70.232C45.2306 70.232 44.9739 70.302 44.7219 70.442C44.4792 70.582 44.2739 70.82 44.1059 71.156C43.9472 71.492 43.8679 71.9587 43.8679 72.556C43.8679 73.0973 43.9612 73.5407 44.1479 73.886C44.3346 74.222 44.5819 74.474 44.8899 74.642C45.1979 74.8007 45.5292 74.88 45.8839 74.88C46.1826 74.88 46.4626 74.838 46.7239 74.754C46.9946 74.67 47.2466 74.5533 47.4799 74.404L48.0399 75.44C47.7226 75.664 47.3586 75.8413 46.9479 75.972C46.5466 76.1027 46.1266 76.168 45.6879 76.168ZM52.0869 79.038C51.5362 79.038 51.0462 78.9727 50.6169 78.842C50.1876 78.7113 49.8469 78.5107 49.5949 78.24C49.3522 77.9787 49.2309 77.6473 49.2309 77.246C49.2309 76.9567 49.3149 76.686 49.4829 76.434C49.6602 76.1913 49.9029 75.972 50.2109 75.776V75.72C50.0429 75.608 49.8982 75.4587 49.7769 75.272C49.6556 75.0853 49.5949 74.852 49.5949 74.572C49.5949 74.3107 49.6696 74.068 49.8189 73.844C49.9776 73.62 50.1549 73.438 50.3509 73.298V73.242C50.1176 73.0647 49.9076 72.8173 49.7209 72.5C49.5436 72.1827 49.4549 71.8233 49.4549 71.422C49.4549 70.8993 49.5809 70.456 49.8329 70.092C50.0849 69.7187 50.4162 69.4387 50.8269 69.252C51.2376 69.056 51.6856 68.958 52.1709 68.958C52.3576 68.958 52.5396 68.972 52.7169 69C52.8942 69.028 53.0482 69.07 53.1789 69.126H55.6429V70.316H54.3549V70.372C54.4856 70.512 54.5882 70.6753 54.6629 70.862C54.7376 71.0393 54.7749 71.2493 54.7749 71.492C54.7749 71.996 54.6582 72.4207 54.4249 72.766C54.1916 73.1113 53.8789 73.3727 53.4869 73.55C53.0949 73.7273 52.6562 73.816 52.1709 73.816C52.0216 73.816 51.8676 73.802 51.7089 73.774C51.5502 73.746 51.3916 73.6993 51.2329 73.634C51.1396 73.7273 51.0602 73.8207 50.9949 73.914C50.9296 74.0073 50.8969 74.1333 50.8969 74.292C50.8969 74.488 50.9809 74.642 51.1489 74.754C51.3169 74.866 51.6062 74.922 52.0169 74.922H53.2349C54.0656 74.922 54.6909 75.0573 55.1109 75.328C55.5402 75.5893 55.7549 76.0187 55.7549 76.616C55.7549 77.064 55.6056 77.47 55.3069 77.834C55.0082 78.2073 54.5836 78.5013 54.0329 78.716C53.4822 78.9307 52.8336 79.038 52.0869 79.038ZM52.1709 72.808C52.3856 72.808 52.5816 72.7567 52.7589 72.654C52.9456 72.542 53.0902 72.3833 53.1929 72.178C53.3049 71.9633 53.3609 71.7113 53.3609 71.422C53.3609 70.9833 53.2442 70.6473 53.0109 70.414C52.7869 70.1807 52.5069 70.064 52.1709 70.064C51.8349 70.064 51.5502 70.1807 51.3169 70.414C51.0836 70.6473 50.9669 70.9833 50.9669 71.422C50.9669 71.7113 51.0229 71.9633 51.1349 72.178C51.2469 72.3833 51.3916 72.542 51.5689 72.654C51.7462 72.7567 51.9469 72.808 52.1709 72.808ZM52.3389 77.988C52.7029 77.988 53.0249 77.9367 53.3049 77.834C53.5849 77.7407 53.8042 77.6053 53.9629 77.428C54.1216 77.26 54.2009 77.078 54.2009 76.882C54.2009 76.6113 54.0936 76.4293 53.8789 76.336C53.6736 76.2427 53.3749 76.196 52.9829 76.196H52.0449C51.8582 76.196 51.6902 76.1867 51.5409 76.168C51.3916 76.1493 51.2469 76.126 51.1069 76.098C50.9296 76.238 50.7942 76.3827 50.7009 76.532C50.6169 76.6813 50.5749 76.84 50.5749 77.008C50.5749 77.316 50.7336 77.554 51.0509 77.722C51.3682 77.8993 51.7976 77.988 52.3389 77.988ZM56.9663 76V69.126H58.2963L58.4083 70.344H58.4643C58.707 69.896 58.9963 69.5553 59.3323 69.322C59.6777 69.0793 60.037 68.958 60.4103 68.958C60.5877 68.958 60.737 68.9673 60.8583 68.986C60.9797 69.0047 61.0917 69.042 61.1943 69.098L60.8723 70.47C60.7603 70.442 60.6577 70.4233 60.5643 70.414C60.471 70.3953 60.3497 70.386 60.2003 70.386C59.9297 70.386 59.645 70.4933 59.3463 70.708C59.0477 70.9133 58.791 71.2773 58.5763 71.8V76H56.9663ZM63.4995 76.168C63.0982 76.168 62.7435 76.084 62.4355 75.916C62.1275 75.748 61.8849 75.5147 61.7075 75.216C61.5395 74.908 61.4555 74.5533 61.4555 74.152C61.4555 73.3773 61.7775 72.794 62.4215 72.402C63.0749 72.0007 64.1062 71.7253 65.5155 71.576C65.5062 71.3427 65.4595 71.128 65.3755 70.932C65.3009 70.736 65.1702 70.582 64.9835 70.47C64.8062 70.3487 64.5635 70.288 64.2555 70.288C63.9195 70.288 63.5882 70.3487 63.2615 70.47C62.9442 70.5913 62.6315 70.7453 62.3235 70.932L61.7355 69.84C61.9875 69.6813 62.2629 69.5367 62.5615 69.406C62.8602 69.266 63.1775 69.1587 63.5135 69.084C63.8495 69 64.1995 68.958 64.5635 68.958C65.1329 68.958 65.6042 69.0747 65.9775 69.308C66.3602 69.532 66.6449 69.868 66.8315 70.316C67.0275 70.7547 67.1255 71.296 67.1255 71.94V76H65.7955L65.6835 75.244H65.6275C65.3102 75.5053 64.9789 75.7247 64.6335 75.902C64.2882 76.0793 63.9102 76.168 63.4995 76.168ZM64.0035 74.852C64.2835 74.852 64.5402 74.796 64.7735 74.684C65.0162 74.5627 65.2635 74.3853 65.5155 74.152V72.696C64.8902 72.7707 64.3955 72.8687 64.0315 72.99C63.6675 73.1113 63.4062 73.2607 63.2475 73.438C63.0982 73.606 63.0235 73.8067 63.0235 74.04C63.0235 74.3293 63.1169 74.5393 63.3035 74.67C63.4902 74.7913 63.7235 74.852 64.0035 74.852ZM69.0523 76V69.126H70.3823L70.4943 70.064H70.5503C70.8396 69.756 71.1523 69.4947 71.4883 69.28C71.8336 69.0653 72.2209 68.958 72.6503 68.958C73.1636 68.958 73.5696 69.0653 73.8683 69.28C74.1669 69.4947 74.3956 69.798 74.5543 70.19C74.8809 69.8353 75.2216 69.5413 75.5763 69.308C75.9309 69.0747 76.3276 68.958 76.7663 68.958C77.4943 68.958 78.0309 69.196 78.3763 69.672C78.7216 70.148 78.8943 70.82 78.8943 71.688V76H77.2703V71.898C77.2703 71.3287 77.1863 70.9273 77.0183 70.694C76.8503 70.4607 76.5843 70.344 76.2203 70.344C75.9963 70.344 75.7676 70.414 75.5343 70.554C75.3009 70.694 75.0489 70.9087 74.7783 71.198V76H73.1683V71.898C73.1683 71.3287 73.0796 70.9273 72.9023 70.694C72.7343 70.4607 72.4683 70.344 72.1043 70.344C71.6749 70.344 71.1943 70.6287 70.6623 71.198V76H69.0523Z" fill="white"/>
<defs>
<clipPath id="clip0_28_8846">
<rect width="48" height="48" fill="white" transform="translate(28)"/>
</clipPath>
</defs>
</svg>
