<svg width="696" height="50" viewBox="0 0 696 50" fill="none" xmlns="http://www.w3.org/2000/svg">
<path d="M347.5 1C347.5 0.723858 347.724 0.5 348 0.5C348.276 0.5 348.5 0.723858 348.5 1H347.5ZM4.35355 49.3536C4.15829 49.5488 3.84171 49.5488 3.64645 49.3536L0.464447 46.1716C0.269196 45.9763 0.269196 45.6597 0.464447 45.4645C0.659729 45.2692 0.976318 45.2692 1.17157 45.4645L4 48.2929L6.82843 45.4645C7.02368 45.2692 7.34027 45.2692 7.53552 45.4645C7.7308 45.6597 7.7308 45.9763 7.53552 46.1716L4.35355 49.3536ZM348.5 1V17H347.5V1H348.5ZM340 25.5H12V24.5H340V25.5ZM4.5 33V49H3.5V33H4.5ZM12 25.5C7.85785 25.5 4.5 28.8579 4.5 33H3.5C3.5 28.3056 7.30557 24.5 12 24.5V25.5ZM348.5 17C348.5 21.6944 344.694 25.5 340 25.5V24.5C344.142 24.5 347.5 21.1421 347.5 17H348.5Z" fill="#C6CAD6"/>
<path d="M347.646 49.3536C347.842 49.5488 348.158 49.5488 348.354 49.3536L351.536 46.1716C351.731 45.9763 351.731 45.6597 351.536 45.4645C351.34 45.2692 351.024 45.2692 350.828 45.4645L348 48.2929L345.172 45.4645C344.976 45.2692 344.66 45.2692 344.464 45.4645C344.269 45.6597 344.269 45.9763 344.464 46.1716L347.646 49.3536ZM347.5 1V49H348.5V1H347.5Z" fill="#C6CAD6"/>
<path d="M348.5 1C348.5 0.723858 348.276 0.5 348 0.5C347.724 0.5 347.5 0.723858 347.5 1H348.5ZM691.646 49.3536C691.842 49.5488 692.158 49.5488 692.354 49.3536L695.536 46.1716C695.731 45.9763 695.731 45.6597 695.536 45.4645C695.34 45.2692 695.024 45.2692 694.828 45.4645L692 48.2929L689.172 45.4645C688.976 45.2692 688.66 45.2692 688.464 45.4645C688.269 45.6597 688.269 45.9763 688.464 46.1716L691.646 49.3536ZM347.5 1V17H348.5V1H347.5ZM356 25.5H684V24.5H356V25.5ZM691.5 33V49H692.5V33H691.5ZM684 25.5C688.142 25.5 691.5 28.8579 691.5 33H692.5C692.5 28.3056 688.694 24.5 684 24.5V25.5ZM347.5 17C347.5 21.6944 351.306 25.5 356 25.5V24.5C351.858 24.5 348.5 21.1421 348.5 17H347.5Z" fill="#C6CAD6"/>
</svg>
