<svg width="522" height="50" viewBox="0 0 522 50" fill="none" xmlns="http://www.w3.org/2000/svg">
<path d="M1.5 1C1.5 0.723858 1.27614 0.5 1 0.5C0.723858 0.5 0.5 0.723858 0.5 1H1.5ZM260.646 49.3536C260.842 49.5488 261.158 49.5488 261.354 49.3536L264.536 46.1716C264.731 45.9763 264.731 45.6597 264.536 45.4645C264.34 45.2692 264.024 45.2692 263.828 45.4645L261 48.2929L258.172 45.4645C257.976 45.2692 257.66 45.2692 257.464 45.4645C257.269 45.6597 257.269 45.9763 257.464 46.1716L260.646 49.3536ZM0.5 1V17H1.5V1H0.5ZM9 25.5H253V24.5H9V25.5ZM260.5 33V49H261.5V33H260.5ZM253 25.5C257.142 25.5 260.5 28.8579 260.5 33H261.5C261.5 28.3056 257.694 24.5 253 24.5V25.5ZM0.5 17C0.5 21.6944 4.30558 25.5 9 25.5V24.5C4.85786 24.5 1.5 21.1421 1.5 17H0.5Z" fill="#C6CAD6"/>
<path d="M520.5 1C520.5 0.723858 520.724 0.5 521 0.5C521.276 0.5 521.5 0.723858 521.5 1H520.5ZM261.354 49.3536C261.158 49.5488 260.842 49.5488 260.646 49.3536L257.464 46.1716C257.269 45.9763 257.269 45.6597 257.464 45.4645C257.66 45.2692 257.976 45.2692 258.172 45.4645L261 48.2929L263.828 45.4645C264.024 45.2692 264.34 45.2692 264.536 45.4645C264.731 45.6597 264.731 45.9763 264.536 46.1716L261.354 49.3536ZM521.5 1V17H520.5V1H521.5ZM513 25.5H269V24.5H513V25.5ZM261.5 33V49H260.5V33H261.5ZM269 25.5C264.858 25.5 261.5 28.8579 261.5 33H260.5C260.5 28.3056 264.306 24.5 269 24.5V25.5ZM521.5 17C521.5 21.6944 517.694 25.5 513 25.5V24.5C517.142 24.5 520.5 21.1421 520.5 17H521.5Z" fill="#C6CAD6"/>
</svg>
