<svg width="104" height="84" viewBox="0 0 104 84" fill="none" xmlns="http://www.w3.org/2000/svg">
<g clip-path="url(#clip0_28_8849)">
<path opacity="0.5" d="M28 23.04C28 12.1788 28 6.74826 31.3741 3.37413C34.7483 0 40.1788 0 51.04 0H52.96C63.8212 0 69.2517 0 72.6259 3.37413C76 6.74826 76 12.1788 76 23.04V24.96C76 35.8212 76 41.2517 72.6259 44.6259C69.2517 48 63.8212 48 52.96 48H51.04C40.1788 48 34.7483 48 31.3741 44.6259C28 41.2517 28 35.8212 28 24.96V23.04Z" fill="white"/>
<path d="M53.5395 34.5801C42.5995 34.5801 36.3596 27.0801 36.0996 14.6001H41.5796C41.7596 23.7601 45.7995 27.6401 48.9995 28.4401V14.6001H54.1597V22.5001C57.3197 22.1601 60.6393 18.5601 61.7593 14.6001H66.9194C66.0594 19.4801 62.4594 23.0801 59.8994 24.5601C62.4594 25.7601 66.5596 28.9001 68.1196 34.5801H62.4394C61.2194 30.7801 58.1797 27.8401 54.1597 27.4401V34.5801H53.5395Z" fill="white"/>
</g>
<path d="M23.7157 76L20.9157 66.844H22.6377L23.8697 71.45C23.963 71.7953 24.0517 72.1313 24.1357 72.458C24.2197 72.7753 24.3037 73.0973 24.3877 73.424C24.481 73.7413 24.579 74.0727 24.6817 74.418H24.7377C24.831 74.0727 24.9197 73.7413 25.0037 73.424C25.0877 73.0973 25.1717 72.7753 25.2557 72.458C25.349 72.1313 25.4423 71.7953 25.5357 71.45L26.8657 66.844H28.5317L25.6337 76H23.7157ZM29.6395 76V66.844H31.2635V71.002H31.3055L34.5675 66.844H36.3735L33.5595 70.414L36.8495 76H35.0575L32.5795 71.688L31.2635 73.326V76H29.6395ZM40.503 76.168C39.9337 76.168 39.4017 76.028 38.907 75.748C38.4123 75.4587 38.011 75.048 37.703 74.516C37.395 73.9747 37.241 73.326 37.241 72.57C37.241 71.8047 37.395 71.156 37.703 70.624C38.011 70.0827 38.4123 69.672 38.907 69.392C39.4017 69.1027 39.9337 68.958 40.503 68.958C41.0817 68.958 41.6183 69.1027 42.113 69.392C42.6077 69.672 43.009 70.0827 43.317 70.624C43.625 71.156 43.779 71.8047 43.779 72.57C43.779 73.326 43.625 73.9747 43.317 74.516C43.009 75.048 42.6077 75.4587 42.113 75.748C41.6183 76.028 41.0817 76.168 40.503 76.168ZM40.503 74.852C40.839 74.852 41.1283 74.7587 41.371 74.572C41.6137 74.3853 41.8003 74.1193 41.931 73.774C42.0617 73.4287 42.127 73.0273 42.127 72.57C42.127 72.1127 42.0617 71.7113 41.931 71.366C41.8003 71.0207 41.6137 70.7547 41.371 70.568C41.1283 70.372 40.839 70.274 40.503 70.274C40.167 70.274 39.8777 70.372 39.635 70.568C39.4017 70.7547 39.2197 71.0207 39.089 71.366C38.9583 71.7113 38.893 72.1127 38.893 72.57C38.893 73.0273 38.9583 73.4287 39.089 73.774C39.2197 74.1193 39.4017 74.3853 39.635 74.572C39.8777 74.7587 40.167 74.852 40.503 74.852ZM45.3726 76V69.126H46.7026L46.8146 70.05H46.8706C47.1786 69.7513 47.5146 69.4947 47.8786 69.28C48.2426 69.0653 48.6579 68.958 49.1246 68.958C49.8619 68.958 50.3986 69.196 50.7346 69.672C51.0706 70.148 51.2386 70.82 51.2386 71.688V76H49.6286V71.898C49.6286 71.3287 49.5446 70.9273 49.3766 70.694C49.2086 70.4607 48.9333 70.344 48.5506 70.344C48.2519 70.344 47.9859 70.4187 47.7526 70.568C47.5286 70.708 47.2719 70.918 46.9826 71.198V76H45.3726ZM55.6286 76.14C54.8352 76.14 54.2706 75.9113 53.9346 75.454C53.6079 74.9873 53.4446 74.3853 53.4446 73.648V70.4H52.4646V69.196L53.5286 69.126L53.7246 66.97H55.0686V69.126H56.8186V70.4H55.0686V73.648C55.0686 74.0493 55.1479 74.3527 55.3066 74.558C55.4652 74.754 55.7079 74.852 56.0346 74.852C56.1559 74.852 56.2772 74.8427 56.3986 74.824C56.5199 74.8053 56.6366 74.768 56.7486 74.712L57.0426 75.846C56.8652 75.93 56.6552 76 56.4126 76.056C56.1699 76.112 55.9086 76.14 55.6286 76.14ZM59.6304 76.168C59.229 76.168 58.8744 76.084 58.5664 75.916C58.2584 75.748 58.0157 75.5147 57.8384 75.216C57.6704 74.908 57.5864 74.5533 57.5864 74.152C57.5864 73.3773 57.9084 72.794 58.5524 72.402C59.2057 72.0007 60.237 71.7253 61.6464 71.576C61.637 71.3427 61.5904 71.128 61.5064 70.932C61.4317 70.736 61.301 70.582 61.1144 70.47C60.937 70.3487 60.6944 70.288 60.3864 70.288C60.0504 70.288 59.719 70.3487 59.3924 70.47C59.075 70.5913 58.7624 70.7453 58.4544 70.932L57.8664 69.84C58.1184 69.6813 58.3937 69.5367 58.6924 69.406C58.991 69.266 59.3084 69.1587 59.6444 69.084C59.9804 69 60.3304 68.958 60.6944 68.958C61.2637 68.958 61.735 69.0747 62.1084 69.308C62.491 69.532 62.7757 69.868 62.9624 70.316C63.1584 70.7547 63.2564 71.296 63.2564 71.94V76H61.9264L61.8144 75.244H61.7584C61.441 75.5053 61.1097 75.7247 60.7644 75.902C60.419 76.0793 60.041 76.168 59.6304 76.168ZM60.1344 74.852C60.4144 74.852 60.671 74.796 60.9044 74.684C61.147 74.5627 61.3944 74.3853 61.6464 74.152V72.696C61.021 72.7707 60.5264 72.8687 60.1624 72.99C59.7984 73.1113 59.537 73.2607 59.3784 73.438C59.229 73.606 59.1544 73.8067 59.1544 74.04C59.1544 74.3293 59.2477 74.5393 59.4344 74.67C59.621 74.7913 59.8544 74.852 60.1344 74.852ZM65.1831 76V66.116H66.7791V72.276H66.8211L69.3411 69.126H71.1191L68.7811 71.94L71.3571 76H69.6071L67.8431 73.018L66.7791 74.236V76H65.1831ZM74.5368 76.14C73.7434 76.14 73.1788 75.9113 72.8428 75.454C72.5161 74.9873 72.3528 74.3853 72.3528 73.648V70.4H71.3728V69.196L72.4368 69.126L72.6328 66.97H73.9768V69.126H75.7268V70.4H73.9768V73.648C73.9768 74.0493 74.0561 74.3527 74.2148 74.558C74.3734 74.754 74.6161 74.852 74.9428 74.852C75.0641 74.852 75.1854 74.8427 75.3068 74.824C75.4281 74.8053 75.5448 74.768 75.6568 74.712L75.9508 75.846C75.7734 75.93 75.5634 76 75.3208 76.056C75.0781 76.112 74.8168 76.14 74.5368 76.14ZM79.9086 76.168C79.2646 76.168 78.6813 76.028 78.1586 75.748C77.6453 75.4587 77.2393 75.048 76.9406 74.516C76.642 73.9747 76.4926 73.3213 76.4926 72.556C76.4926 71.8093 76.6466 71.17 76.9546 70.638C77.2626 70.0967 77.6593 69.6813 78.1446 69.392C78.63 69.1027 79.1433 68.958 79.6846 68.958C80.31 68.958 80.8326 69.098 81.2526 69.378C81.6726 69.658 81.9853 70.0453 82.1906 70.54C82.4053 71.0253 82.5126 71.5853 82.5126 72.22C82.5126 72.3693 82.5033 72.514 82.4846 72.654C82.4753 72.794 82.4566 72.9293 82.4286 73.06H77.6966V71.828H81.0846C81.0846 71.3333 80.9726 70.946 80.7486 70.666C80.5246 70.3767 80.1793 70.232 79.7126 70.232C79.4513 70.232 79.1946 70.302 78.9426 70.442C78.7 70.582 78.4946 70.82 78.3266 71.156C78.168 71.492 78.0886 71.9587 78.0886 72.556C78.0886 73.0973 78.182 73.5407 78.3686 73.886C78.5553 74.222 78.8026 74.474 79.1106 74.642C79.4186 74.8007 79.75 74.88 80.1046 74.88C80.4033 74.88 80.6833 74.838 80.9446 74.754C81.2153 74.67 81.4673 74.5533 81.7006 74.404L82.2606 75.44C81.9433 75.664 81.5793 75.8413 81.1686 75.972C80.7673 76.1027 80.3473 76.168 79.9086 76.168Z" fill="white"/>
<defs>
<clipPath id="clip0_28_8849">
<rect width="48" height="48" fill="white" transform="translate(28)"/>
</clipPath>
</defs>
</svg>
