<svg width="104" height="84" viewBox="0 0 104 84" fill="none" xmlns="http://www.w3.org/2000/svg">
<g clip-path="url(#clip0_28_8845)">
<path opacity="0.5" d="M28 24C28 17.6348 30.5286 11.5303 35.0294 7.02944C39.5303 2.52856 45.6348 0 52 0C58.3652 0 64.4697 2.52856 68.9706 7.02944C73.4714 11.5303 76 17.6348 76 24C76 30.3652 73.4714 36.4697 68.9706 40.9706C64.4697 45.4714 58.3652 48 52 48C45.6348 48 39.5303 45.4714 35.0294 40.9706C30.5286 36.4697 28 30.3652 28 24Z" fill="white"/>
<path fill-rule="evenodd" clip-rule="evenodd" d="M48.0766 47.676C43.2662 46.8859 38.8117 44.6461 35.3086 41.256L56.9326 21.408L44.5726 24.408C43.7544 24.6091 42.9044 24.6453 42.0721 24.5145C41.2398 24.3838 40.4419 24.0886 39.7248 23.6463C39.0078 23.204 38.3859 22.6234 37.8955 21.9383C37.4052 21.2532 37.0561 20.4774 36.8686 19.656C36.4886 17.9846 36.7799 16.2309 37.6798 14.7721C38.5797 13.3134 40.0164 12.2662 41.6806 11.856L67.4086 5.604C70.542 8.22777 72.9535 11.6082 74.4145 15.425C75.8756 19.2418 76.3377 23.3684 75.7572 27.4138C75.1767 31.4592 73.5728 35.2894 71.0975 38.5413C68.6221 41.7933 65.3574 44.3592 61.6126 45.996C61.5406 45.144 61.6246 44.256 61.9246 43.392L66.0046 31.224L48.0766 47.676Z" fill="white"/>
</g>
<path d="M9.97402 76V72.416H8.40602C7.80869 72.4067 7.26269 72.304 6.76802 72.108C6.27336 71.9027 5.87669 71.59 5.57802 71.17C5.28869 70.75 5.14402 70.2133 5.14402 69.56C5.14402 68.8787 5.29336 68.342 5.59202 67.95C5.89069 67.5487 6.29202 67.264 6.79602 67.096C7.30936 66.928 7.88336 66.844 8.51802 66.844H11.598V76H9.97402ZM8.68602 71.128H9.97402V68.146H8.68602C8.06069 68.146 7.58002 68.2533 7.24402 68.468C6.91736 68.6733 6.75402 69.0373 6.75402 69.56C6.75402 70.0827 6.91736 70.4747 7.24402 70.736C7.58002 70.9973 8.06069 71.128 8.68602 71.128ZM4.61202 76L7.72002 71.184L8.88202 71.982L6.47402 76H4.61202ZM13.7906 76V69.126H15.4006V71.758H18.1446V69.126H19.7546V76H18.1446V73.172H15.4006V76H13.7906ZM22.5443 76V78.408H21.1443L20.9903 75.762V74.712H28.3683V75.762L28.2003 78.408H26.8143V76H22.5443ZM25.7083 75.524V70.4H23.8743L23.6643 72.36C23.5896 72.9667 23.4869 73.4753 23.3563 73.886C23.2349 74.2967 23.0809 74.628 22.8943 74.88C22.7169 75.132 22.5163 75.3187 22.2923 75.44C22.0683 75.5613 21.8349 75.636 21.5923 75.664L21.3823 74.712C21.4943 74.656 21.6016 74.5487 21.7043 74.39C21.8163 74.2313 21.9143 73.97 21.9983 73.606C22.0916 73.2327 22.1803 72.7007 22.2643 72.01L22.6003 69.126H27.3183V75.524H25.7083ZM32.5766 76.168C31.9326 76.168 31.3493 76.028 30.8266 75.748C30.3133 75.4587 29.9073 75.048 29.6086 74.516C29.3099 73.9747 29.1606 73.3213 29.1606 72.556C29.1606 71.8093 29.3146 71.17 29.6226 70.638C29.9306 70.0967 30.3273 69.6813 30.8126 69.392C31.2979 69.1027 31.8113 68.958 32.3526 68.958C32.9779 68.958 33.5006 69.098 33.9206 69.378C34.3406 69.658 34.6533 70.0453 34.8586 70.54C35.0733 71.0253 35.1806 71.5853 35.1806 72.22C35.1806 72.3693 35.1713 72.514 35.1526 72.654C35.1433 72.794 35.1246 72.9293 35.0966 73.06H30.3646V71.828H33.7526C33.7526 71.3333 33.6406 70.946 33.4166 70.666C33.1926 70.3767 32.8473 70.232 32.3806 70.232C32.1193 70.232 31.8626 70.302 31.6106 70.442C31.3679 70.582 31.1626 70.82 30.9946 71.156C30.8359 71.492 30.7566 71.9587 30.7566 72.556C30.7566 73.0973 30.8499 73.5407 31.0366 73.886C31.2233 74.222 31.4706 74.474 31.7786 74.642C32.0866 74.8007 32.4179 74.88 32.7726 74.88C33.0713 74.88 33.3513 74.838 33.6126 74.754C33.8833 74.67 34.1353 74.5533 34.3686 74.404L34.9286 75.44C34.6113 75.664 34.2473 75.8413 33.8366 75.972C33.4353 76.1027 33.0153 76.168 32.5766 76.168ZM36.7183 76V69.126H38.3143V71.8H39.4903L40.1343 70.414C40.321 70.0127 40.5123 69.7093 40.7083 69.504C40.9136 69.2987 41.133 69.1587 41.3663 69.084C41.5996 69.0093 41.861 68.972 42.1503 68.972C42.337 68.972 42.4956 69.0047 42.6263 69.07L42.3603 70.568C42.323 70.5493 42.2856 70.5353 42.2483 70.526C42.211 70.5167 42.169 70.512 42.1223 70.512C41.945 70.512 41.7816 70.5587 41.6323 70.652C41.4923 70.7453 41.343 70.9647 41.1843 71.31L40.7223 72.388L42.8923 76H41.1423L39.5323 73.088H38.3143V76H36.7183ZM46.63 76.168C45.9953 76.168 45.426 76.028 44.922 75.748C44.418 75.4587 44.0166 75.048 43.718 74.516C43.4286 73.9747 43.284 73.326 43.284 72.57C43.284 71.8047 43.4426 71.156 43.76 70.624C44.0773 70.0827 44.4973 69.672 45.02 69.392C45.552 69.1027 46.1213 68.958 46.728 68.958C47.1666 68.958 47.5493 69.0327 47.876 69.182C48.212 69.322 48.5013 69.504 48.744 69.728L47.974 70.736C47.8246 70.596 47.652 70.484 47.456 70.4C47.2693 70.316 47.0546 70.274 46.812 70.274C46.448 70.274 46.126 70.372 45.846 70.568C45.566 70.7547 45.342 71.0207 45.174 71.366C45.0153 71.702 44.936 72.1033 44.936 72.57C44.936 73.0273 45.0153 73.4287 45.174 73.774C45.3326 74.11 45.5473 74.376 45.818 74.572C46.098 74.7587 46.42 74.852 46.784 74.852C47.0546 74.852 47.3066 74.8007 47.54 74.698C47.7826 74.5953 47.9973 74.4647 48.184 74.306L48.842 75.3C48.5526 75.5613 48.2166 75.7713 47.834 75.93C47.4606 76.0887 47.0593 76.168 46.63 76.168ZM51.1088 76.168C50.8194 76.168 50.5721 76.0653 50.3668 75.86C50.1614 75.6453 50.0588 75.384 50.0588 75.076C50.0588 74.7587 50.1614 74.4973 50.3668 74.292C50.5721 74.0867 50.8194 73.984 51.1088 73.984C51.4074 73.984 51.6548 74.0867 51.8508 74.292C52.0468 74.4973 52.1448 74.7587 52.1448 75.076C52.1448 75.384 52.0468 75.6453 51.8508 75.86C51.6548 76.0653 51.4074 76.168 51.1088 76.168ZM55.4548 76V78.632H54.0128L53.8588 75.636V74.628H62.4828V75.636L62.3288 78.632H60.8868V76H55.4548ZM59.7808 75.468V68.216H57.6808C57.6061 68.6547 57.5361 69.0513 57.4708 69.406C57.4148 69.7513 57.3541 70.1013 57.2888 70.456C57.2234 70.8013 57.1441 71.198 57.0508 71.646C56.9201 72.3087 56.7708 72.8873 56.6028 73.382C56.4441 73.8673 56.2668 74.2733 56.0708 74.6C55.8748 74.9173 55.6554 75.16 55.4128 75.328C55.1794 75.496 54.9134 75.594 54.6148 75.622L54.2788 74.628C54.4188 74.5813 54.5588 74.4507 54.6988 74.236C54.8388 74.0213 54.9834 73.69 55.1328 73.242C55.2821 72.7847 55.4361 72.1733 55.5948 71.408C55.7161 70.8293 55.8188 70.316 55.9028 69.868C55.9961 69.4107 56.0801 68.9487 56.1548 68.482C56.2388 68.006 56.3274 67.46 56.4208 66.844H61.4048V75.468H59.7808ZM63.939 76V69.126H65.507V71.492C65.507 71.8653 65.493 72.2573 65.465 72.668C65.437 73.0787 65.3997 73.536 65.353 74.04H65.409C65.5397 73.7693 65.675 73.4893 65.815 73.2C65.9643 72.9013 66.0997 72.6493 66.221 72.444L68.153 69.126H69.931V76H68.363V73.62C68.363 73.2653 68.3723 72.8827 68.391 72.472C68.419 72.052 68.461 71.5853 68.517 71.072H68.461C68.3397 71.3613 68.2043 71.6507 68.055 71.94C67.915 72.2293 67.7797 72.4813 67.649 72.696L65.717 76H63.939ZM71.9781 78.716V69.126H73.3081L73.4201 69.854H73.4761C73.7654 69.602 74.0874 69.392 74.4421 69.224C74.7967 69.0467 75.1654 68.958 75.5481 68.958C76.1174 68.958 76.6027 69.1027 77.0041 69.392C77.4054 69.6813 77.7134 70.0873 77.9281 70.61C78.1427 71.1327 78.2501 71.7487 78.2501 72.458C78.2501 73.242 78.1101 73.9093 77.8301 74.46C77.5501 75.0107 77.1861 75.4353 76.7381 75.734C76.2994 76.0233 75.8234 76.168 75.3101 76.168C75.0114 76.168 74.7127 76.1027 74.4141 75.972C74.1154 75.8413 73.8261 75.6547 73.5461 75.412L73.5881 76.56V78.716H71.9781ZM74.9741 74.838C75.2821 74.838 75.5574 74.7493 75.8001 74.572C76.0427 74.3947 76.2341 74.1333 76.3741 73.788C76.5141 73.4333 76.5841 72.9947 76.5841 72.472C76.5841 72.0147 76.5327 71.6227 76.4301 71.296C76.3274 70.9693 76.1641 70.722 75.9401 70.554C75.7254 70.3767 75.4454 70.288 75.1001 70.288C74.8481 70.288 74.6007 70.3533 74.3581 70.484C74.1154 70.6053 73.8587 70.7967 73.5881 71.058V74.264C73.8401 74.4693 74.0827 74.6187 74.3161 74.712C74.5587 74.796 74.7781 74.838 74.9741 74.838ZM82.8344 76.168C82.1904 76.168 81.6071 76.028 81.0844 75.748C80.5711 75.4587 80.1651 75.048 79.8664 74.516C79.5677 73.9747 79.4184 73.3213 79.4184 72.556C79.4184 71.8093 79.5724 71.17 79.8804 70.638C80.1884 70.0967 80.5851 69.6813 81.0704 69.392C81.5557 69.1027 82.0691 68.958 82.6104 68.958C83.2357 68.958 83.7584 69.098 84.1784 69.378C84.5984 69.658 84.9111 70.0453 85.1164 70.54C85.3311 71.0253 85.4384 71.5853 85.4384 72.22C85.4384 72.3693 85.4291 72.514 85.4104 72.654C85.4011 72.794 85.3824 72.9293 85.3544 73.06H80.6224V71.828H84.0104C84.0104 71.3333 83.8984 70.946 83.6744 70.666C83.4504 70.3767 83.1051 70.232 82.6384 70.232C82.3771 70.232 82.1204 70.302 81.8684 70.442C81.6257 70.582 81.4204 70.82 81.2524 71.156C81.0937 71.492 81.0144 71.9587 81.0144 72.556C81.0144 73.0973 81.1077 73.5407 81.2944 73.886C81.4811 74.222 81.7284 74.474 82.0364 74.642C82.3444 74.8007 82.6757 74.88 83.0304 74.88C83.3291 74.88 83.6091 74.838 83.8704 74.754C84.1411 74.67 84.3931 74.5533 84.6264 74.404L85.1864 75.44C84.8691 75.664 84.5051 75.8413 84.0944 75.972C83.6931 76.1027 83.2731 76.168 82.8344 76.168ZM86.9761 76V69.126H88.5721V71.8H89.7481L90.3921 70.414C90.5788 70.0127 90.7701 69.7093 90.9661 69.504C91.1714 69.2987 91.3908 69.1587 91.6241 69.084C91.8574 69.0093 92.1188 68.972 92.4081 68.972C92.5948 68.972 92.7534 69.0047 92.8841 69.07L92.6181 70.568C92.5808 70.5493 92.5434 70.5353 92.5061 70.526C92.4688 70.5167 92.4268 70.512 92.3801 70.512C92.2028 70.512 92.0394 70.5587 91.8901 70.652C91.7501 70.7453 91.6008 70.9647 91.4421 71.31L90.9801 72.388L93.1501 76H91.4001L89.7901 73.088H88.5721V76H86.9761ZM95.4878 76V70.4H93.3318V69.126H99.2678V70.4H97.1118V76H95.4878Z" fill="white"/>
<defs>
<clipPath id="clip0_28_8845">
<rect width="48" height="48" fill="white" transform="translate(28)"/>
</clipPath>
</defs>
</svg>
